<svg xmlns="http://www.w3.org/2000/svg" viewBox="0 0 64 64" fill="none">
  <rect width="64" height="64" rx="18" fill="#0B0B0F" />
  <rect x="8" y="8" width="48" height="48" rx="16" fill="url(#a)" />
  <path
    d="M24 21.5C20.41 21.5 17.5 24.41 17.5 28v8c0 3.59 2.91 6.5 6.5 6.5h7.5v-7.5H24a3 3 0 0 1 0-6h16a6.5 6.5 0 0 0-6.5-6.5H24Z"
    fill="white"
    fill-opacity=".96"
  />
  <path
    d="M40 42.5c3.59 0 6.5-2.91 6.5-6.5v-8c0-3.59-2.91-6.5-6.5-6.5h-7.5V29H40a3 3 0 1 1 0 6H24a6.5 6.5 0 0 0 6.5 6.5H40Z"
    fill="#C7D2FE"
    fill-opacity=".92"
  />
  <defs>
    <linearGradient id="a" x1="8" y1="8" x2="56" y2="56" gradientUnits="userSpaceOnUse">
      <stop stop-color="#6366F1" />
      <stop offset="1" stop-color="#38BDF8" />
    </linearGradient>
  </defs>
</svg>
